<svg width="36" height="36" viewBox="0 0 36 36" fill="none" xmlns="http://www.w3.org/2000/svg">
<path opacity="0.99" d="M1.28571 0C0.514286 0 0 0.514286 0 1.28571V11.5714C0 12.3429 0.514286 12.8571 1.28571 12.8571H11.5714C12.3429 12.8571 12.8571 12.3429 12.8571 11.5714C12.8571 10.8 12.3429 10.2857 11.5714 10.2857H4.62857C8.48571 3.6 16.4571 0.771428 23.6571 3.6C30.8571 6.42857 34.7143 13.8857 33.1714 21.3429C31.6286 28.8 24.4286 33.9429 16.9714 33.4286C9.51429 32.9143 3.34286 26.7429 2.57143 19.2857C2.57143 18.5143 2.05714 18 1.28571 18C0.514286 18 0 18.7714 0 19.2857C0.771429 28.0286 7.71429 35.2286 16.7143 35.7429C25.7143 36.2571 33.6857 30.3429 35.4857 21.8571C37.5429 13.1143 32.6571 4.37143 24.4286 1.02857C22.3714 0.514286 20.3143 0 18.2571 0C12.0857 0 5.91429 3.08571 2.57143 8.74286V1.28571C2.57143 0.514286 2.05714 0 1.28571 0ZM24.4286 7.71429C23.9143 7.71429 23.6571 7.97143 23.4 8.22857L15.6857 18.5143C15.4286 19.0286 15.4286 19.5429 15.6857 20.0571L20.8286 27.7714C21.0857 28.2857 22.1143 28.5429 22.6286 28.0286C23.1429 27.7714 23.4 26.7429 22.8857 26.2286L18.2571 19.2857L25.4571 9.77143C25.7143 9.51429 25.7143 9.25714 25.7143 9C25.7143 8.22857 25.2 7.71429 24.4286 7.71429Z" fill="#C3B774"/>
</svg>
