<svg width="36" height="36" viewBox="0 0 36 36" fill="none" xmlns="http://www.w3.org/2000/svg">
<path d="M31.9149 0.255493C30.8936 0.255493 30.1277 1.53209 30.8936 2.55337C32.1702 4.3406 33.1915 5.87251 33.1915 9.19166C33.1915 15.3193 28.3404 22.7236 15.5745 22.7236C9.95745 22.7236 6.6383 21.7023 5.10638 20.681C3.06383 19.4044 2.80851 18.6385 2.80851 17.8725C2.80851 16.5959 4.08511 13.2768 11.7447 12.2555C13.5319 12.0002 13.2766 9.19166 11.4894 9.44698C2.80851 10.4683 0 14.8087 0 17.8725C0 19.6597 1.02128 21.7023 3.31915 22.9789C5.61702 24.2555 9.44681 25.5321 15.3191 25.5321C29.3617 25.5321 35.7447 16.8512 35.7447 9.19166C35.7447 5.10656 34.2128 2.80868 32.9362 1.02145C32.9362 0.510812 32.4255 0.255493 31.9149 0.255493ZM21.7021 9.95762C20.1702 9.95762 19.6596 12.5108 21.4468 12.7661C23.7447 13.2768 25.5319 14.298 27.0638 15.3193C28.5957 16.3406 30.1277 14.0427 28.5957 13.0214C26.8085 11.7449 24.5106 10.7236 21.9574 9.95762C21.9574 9.95762 21.9574 9.95762 21.7021 9.95762ZM33.9574 20.681C32.9362 20.681 32.4255 21.7023 32.6809 22.4683C32.9362 23.2342 32.9362 23.7449 32.9362 24.2555C32.9362 24.7661 32.9362 25.0214 32.9362 25.7874C32.9362 26.5534 32.9362 27.3193 32.6809 28.0853C32.1702 29.8725 31.1489 31.6597 28.5957 32.9363C27.0638 33.9576 28.3404 36.2555 29.8723 35.4895C32.9362 33.7023 34.4681 31.1491 35.234 28.8512C35.4894 27.83 35.7447 26.8087 35.7447 25.7874C35.7447 25.0214 35.7447 24.2555 35.7447 24.2555C35.7447 23.4895 35.4894 22.4683 35.234 21.7023C35.234 21.1917 34.7234 20.681 33.9574 20.681Z" fill="#F6BCB2"/>
<path opacity="0.6" fill-rule="evenodd" clip-rule="evenodd" d="M16.5959 0C15.83 0 15.3193 0.510638 15.3193 1.2766V19.1489C15.3193 19.6596 15.83 20.4255 16.5959 20.4255C17.3619 20.4255 17.8725 19.6596 17.8725 19.1489V1.2766C17.8725 0.510638 17.3619 0 16.5959 0ZM16.5959 28.0851C15.83 28.0851 15.3193 28.5957 15.3193 29.3617V34.4681C15.3193 35.234 15.83 35.7447 16.5959 35.7447C17.3619 35.7447 17.8725 35.234 17.8725 34.4681V29.3617C17.8725 28.5957 17.3619 28.0851 16.5959 28.0851Z" fill="#F6BCB2"/>
</svg>
