<svg width="37" height="34" viewBox="0 0 37 34" fill="none" xmlns="http://www.w3.org/2000/svg">
<path d="M13.3201 1.19995H18.1201V5.99995H13.3201V1.19995Z" fill="#7BCFB3"/>
<path d="M18.1203 7.2H13.3203C12.6003 7.2 12.1203 6.72 12.1203 6V1.2C12.1203 0.48 12.6003 0 13.3203 0H18.1203C18.8403 0 19.3203 0.48 19.3203 1.2V6C19.3203 6.72 18.8403 7.2 18.1203 7.2ZM14.5203 4.8H16.9203V2.4H14.5203V4.8Z" fill="#7BCFB3"/>
<path opacity="0.7" d="M1.32051 33.6002C1.08051 33.6002 0.600451 33.6002 0.36045 33.3602C-0.11955 32.8802 -0.11955 32.1602 0.36045 31.6802L5.16045 26.8802C9.48045 22.5602 12.1205 15.8402 12.1205 8.64016V6.24016C12.1205 5.52016 12.6005 5.04016 13.3205 5.04016C14.0405 5.04016 14.5205 5.52016 14.5205 6.24016V8.64016C14.5205 16.8002 11.8806 23.7602 7.08057 28.5602L2.28057 33.3602C1.80057 33.6002 1.56051 33.6002 1.32051 33.6002Z" fill="#7BCFB3"/>
<path opacity="0.7" d="M32.5205 33.5997C31.8005 33.5997 31.3205 33.1197 31.3205 32.3997C31.3205 24.9597 28.9204 18.4797 24.3604 14.1597L17.1604 6.95969C16.6804 6.47969 16.6804 5.75968 17.1604 5.27968C17.6404 4.79968 18.3605 4.79968 18.8405 5.27968L26.0405 12.4797C30.8405 17.2797 33.4805 24.4797 33.4805 32.3997C33.7205 33.1197 33.2405 33.5997 32.5205 33.5997Z" fill="#7BCFB3"/>
<path d="M20.5207 26.3999H15.7207C15.0007 26.3999 14.5207 25.9199 14.5207 25.1999V20.4C14.5207 19.68 15.0007 19.2 15.7207 19.2H20.5207C21.2407 19.2 21.7207 19.68 21.7207 20.4V25.1999C21.7207 25.9199 21.2407 26.3999 20.5207 26.3999ZM16.9207 23.9999H19.3207V21.6H16.9207V23.9999Z" fill="#7BCFB3"/>
<path d="M16.9203 12H19.3203V19.2H16.9203V12Z" fill="#7BCFB3"/>
<path d="M34.9199 7.2H30.1199C29.3999 7.2 28.9199 6.72 28.9199 6V1.2C28.9199 0.48 29.3999 0 30.1199 0L34.9199 0C35.6399 0 36.1199 0.48 36.1199 1.2V6C36.1199 6.72 35.6399 7.2 34.9199 7.2ZM31.3199 4.8H33.7199V2.4L31.3199 2.4V4.8Z" fill="#7BCFB3"/>
<path d="M24.1201 7.2V0L26.5201 0V7.2H24.1201Z" fill="#7BCFB3"/>
</svg>
