<svg width="36" height="36" viewBox="0 0 36 36" fill="none" xmlns="http://www.w3.org/2000/svg">
<path d="M15.1717 0C13.3793 0.255578 11.5868 1.27789 10.8187 3.06693C10.5626 3.57809 10.8187 4.34482 11.3308 4.85598C11.8429 5.11156 12.6111 4.85598 13.1232 4.34482C13.6353 3.06693 14.9157 2.55578 16.196 3.06693C17.4763 3.57809 18.2445 4.60039 17.9884 5.87828C17.7323 7.15617 16.7081 7.66733 15.4278 7.66733H1.34433C-0.44811 7.66733 -0.44811 10.2231 1.34433 10.2231H15.4278C17.9884 10.2231 20.0369 8.43406 20.549 5.87828C20.8051 3.32251 19.2687 1.02231 16.9642 0.255574C16.196 -3.89885e-06 15.6838 0 15.1717 0ZM29.5112 5.11155C27.2067 5.11155 25.1582 6.38944 23.8779 8.17848C23.6218 8.68964 23.6218 9.45637 24.39 9.96753C24.9021 10.2231 25.6703 10.2231 26.1824 9.45637C27.2067 7.92291 28.9991 7.15617 30.7915 7.66733C32.584 8.43406 33.6082 9.96753 33.3522 12.0121C33.0961 13.8012 31.5597 15.0791 29.5112 15.0791H1.34433C-0.44811 15.0791 -0.44811 17.6349 1.34433 17.6349H29.5112C32.584 17.6349 35.4007 15.3347 35.9128 12.2677C36.4249 9.20079 34.6325 6.13386 31.8158 5.11155C31.0476 5.11155 30.2794 5.11155 29.5112 5.11155ZM1.34433 23.002C-0.44811 23.002 -0.44811 25.5578 1.34433 25.5578H21.8293C23.6218 25.5578 25.4142 26.8356 25.6703 28.8803C25.9264 30.6693 24.9021 32.4584 23.1097 33.2251C21.3172 33.9918 19.2687 32.9695 18.5005 31.1805C17.9884 30.4137 17.2202 30.1582 16.7081 30.6693C16.196 31.1805 15.9399 31.6916 16.196 32.4584C17.7323 35.2697 20.8051 36.5476 23.8779 35.7809C26.9506 35.0141 28.743 31.6916 28.2309 28.6247C27.7188 25.3022 24.9021 23.002 21.8293 23.002H1.34433Z" fill="#BE8170"/>
</svg>
