<svg width="37" height="37" viewBox="0 0 37 37" fill="none" xmlns="http://www.w3.org/2000/svg">
<path d="M11.5714 13.8571C18 13.8571 23.1429 19 23.1429 25.4286C23.1429 31.8571 18 37 11.5714 37C5.14286 37 0 31.8571 0 25.4286C0 19 5.14286 13.8571 11.5714 13.8571ZM11.5714 16.4286C6.68571 16.4286 2.57143 20.5429 2.57143 25.4286C2.57143 30.3143 6.68571 34.4286 11.5714 34.4286C16.4571 34.4286 20.5714 30.3143 20.5714 25.4286C20.5714 20.5429 16.4571 16.4286 11.5714 16.4286Z" fill="#C1C7CC"/>
<path opacity="0.6" d="M25.4571 0.999706C31.1143 1.51399 35.4857 5.88542 36 11.5426C36.5143 17.1997 32.9143 22.3426 27.5143 23.6283C26.7428 23.8854 26.2285 23.3711 25.9714 22.8569C25.7143 22.0854 26.2285 21.5711 26.7428 21.314C31.1143 20.2854 33.9428 16.1711 33.4285 11.7997C32.9143 7.42828 29.5714 4.08542 25.2 3.57114C20.8285 3.05685 16.7143 6.14256 15.6857 10.2569C15.4285 11.0283 14.9143 11.5426 14.1428 11.2854C13.3714 11.0283 13.1143 10.514 13.1143 9.74256C14.6571 4.34256 19.8 0.485421 25.4571 0.999706Z" fill="#C1C7CC"/>
<path d="M15.4286 25.4286C15.4286 27.4857 13.6286 29.2857 11.5715 29.2857C9.51436 29.2857 7.71436 27.4857 7.71436 25.4286C7.71436 23.3714 9.51436 21.5714 11.5715 21.5714C13.6286 21.5714 15.4286 23.3714 15.4286 25.4286Z" fill="#C1C7CC"/>
</svg>
