<svg width="37" height="36" viewBox="0 0 37 36" fill="none" xmlns="http://www.w3.org/2000/svg">
<path opacity="0.6" d="M9 23.1428C8.22857 23.1428 7.71429 23.9143 7.71429 24.4285V28.2857H1.28571C0.514286 28.2857 0 29.0571 0 29.5714V34.7143C0 35.4857 0.514286 36 1.28571 36C2.05714 36 2.57143 35.4857 2.57143 34.7143V30.8571H9C9.77143 30.8571 10.2857 30.3428 10.2857 29.5714V24.4285C10.2857 23.9143 9.77143 23.1428 9 23.1428Z" fill="#C3B774"/>
<path d="M20.3145 0C16.2002 0 12.0859 1.28571 9.25731 4.37143L7.45731 6.17143C6.94302 6.68572 6.94302 7.45714 7.45731 7.97143L12.6002 13.1143C13.1145 13.6286 13.8859 13.6286 14.4002 13.1143L15.6859 11.8286C17.2287 10.2857 19.8002 9.51429 21.6002 10.0286C23.6573 10.5429 25.2002 12.0857 25.7145 14.1429C26.2287 16.2 25.4573 18.7714 23.9145 20.0571L22.8859 21.6C22.3716 22.1143 22.3716 22.8857 22.8859 23.4L28.0287 28.5429C28.543 29.0571 29.3145 29.0571 29.8287 28.5429L31.8859 26.4857C37.543 20.8286 37.543 10.2857 31.6287 4.37143C28.543 1.54286 24.4287 0 20.3145 0ZM4.3716 9.77143C4.11445 9.77143 3.60017 10.0286 3.60017 10.0286L0.25731 13.3714C0.000167415 13.8857 0.000167415 14.6571 0.25731 15.1714L5.40017 20.3143C5.91445 20.8286 6.68588 20.8286 7.20017 20.3143L10.2859 17.2286C10.8002 16.7143 10.8002 15.9429 10.2859 15.4286L5.14302 10.2857C5.14302 9.77143 4.88588 9.77143 4.3716 9.77143ZM19.8002 25.2C19.543 25.2 19.0287 25.4571 19.0287 25.4571L15.943 28.5429C15.4287 29.0571 15.4287 29.8286 15.943 30.3429L21.0859 35.4857C21.6002 36 22.3716 36 22.8859 35.4857L25.9716 32.4C26.4859 31.8857 26.4859 31.1143 25.9716 30.6L20.8287 25.4571C20.5716 25.2 20.3145 25.2 19.8002 25.2Z" fill="#C3B774"/>
</svg>
