<svg width="37" height="34" viewBox="0 0 37 34" fill="none" xmlns="http://www.w3.org/2000/svg">
<path opacity="0.6" d="M10.35 2.57153V5.14296H34.7786C36.5786 5.14296 36.5786 2.57153 34.7786 2.57153H10.35ZM1.35 15.4287C-0.45 15.4287 -0.45 18.0001 1.35 18.0001H15.4929V15.4287H1.35ZM28.35 15.4287V18.0001H34.7786C36.5786 18.0001 36.5786 15.4287 34.7786 15.4287H28.35ZM1.35 28.2858C-0.45 28.2858 -0.45 30.8572 1.35 30.8572H25.7786V28.2858H1.35Z" fill="#B2D9F6"/>
<path d="M3.9216 0C1.86445 0 0.0644531 1.8 0.0644531 3.85714C0.0644531 5.91429 1.86445 7.71429 3.9216 7.71429C5.97874 7.71429 7.77874 5.91429 7.77874 3.85714C7.77874 1.8 5.97874 0 3.9216 0ZM3.9216 2.57143C4.69302 2.57143 5.20731 3.08571 5.20731 3.85714C5.20731 4.62857 4.69302 5.14286 3.9216 5.14286C3.15017 5.14286 2.63588 4.62857 2.63588 3.85714C2.63588 3.08571 3.15017 2.57143 3.9216 2.57143ZM21.9216 12.8571C19.8645 12.8571 18.0645 14.6571 18.0645 16.7143C18.0645 18.7714 19.8645 20.5714 21.9216 20.5714C23.9787 20.5714 25.7787 18.7714 25.7787 16.7143C25.7787 14.6571 23.9787 12.8571 21.9216 12.8571ZM21.9216 15.4286C22.693 15.4286 23.2073 15.9429 23.2073 16.7143C23.2073 17.4857 22.693 18 21.9216 18C21.1502 18 20.6359 17.4857 20.6359 16.7143C20.6359 15.9429 21.1502 15.4286 21.9216 15.4286ZM32.2073 25.7143C30.1502 25.7143 28.3502 27.5143 28.3502 29.5714C28.3502 31.6286 30.1502 33.4286 32.2073 33.4286C34.2645 33.4286 36.0645 31.6286 36.0645 29.5714C36.0645 27.5143 34.2645 25.7143 32.2073 25.7143ZM32.2073 28.2857C32.9787 28.2857 33.493 28.8 33.493 29.5714C33.493 30.3429 32.9787 30.8571 32.2073 30.8571C31.4359 30.8571 30.9216 30.3429 30.9216 29.5714C30.9216 28.8 31.4359 28.2857 32.2073 28.2857Z" fill="#B2D9F6"/>
</svg>
