<svg width="36" height="37" viewBox="0 0 36 37" fill="none" xmlns="http://www.w3.org/2000/svg">
<path d="M12.097 0.600002C14.497 0.600002 16.5969 1.8 17.7969 3.9C18.6969 6 18.0969 9 15.3969 11.4L7.89691 18.9C5.79691 21 5.79699 22.2 6.09698 23.1C6.39698 24 7.59687 24.6 8.79688 24.6H30.697L24.3969 18.3C23.7969 17.7 23.7969 16.8 24.3969 16.2C24.9969 15.6 25.8969 15.6 26.4969 16.2L35.197 24.9C35.497 25.2 35.7969 25.8 35.7969 26.1C35.7969 26.4 35.497 26.7 35.197 27L26.4969 35.7C25.8969 36.3 24.9969 36.3 24.3969 35.7C23.7969 35.1 23.7969 34.2 24.3969 33.6L30.9969 27H9.09698C6.69699 27 4.29691 25.8 3.39691 23.7C2.49691 21.6 3.09687 18.6 5.79688 16.2L13.2969 8.7C15.3969 6.6 15.397 5.4 15.097 4.5C14.797 3.6 13.5969 3 12.3969 3H1.89691C0.99691 3 0.396912 2.4 0.396912 1.5C0.396912 0.6 0.99691 0 1.89691 0H12.097V0.600002Z" fill="#C1C7CC"/>
</svg>
