<svg width="38" height="37" viewBox="0 0 38 37" fill="none" xmlns="http://www.w3.org/2000/svg">
<path opacity="0.6" d="M28.0251 7.72948H20.3109C19.5394 7.72948 19.0251 8.24376 19.0251 9.01519C19.0251 9.78662 19.5394 10.3009 20.3109 10.3009H24.9394L11.8252 23.4152C11.3109 23.9295 11.3109 24.7009 11.8252 25.2152C12.3395 25.7295 13.1108 25.7295 13.6251 25.2152L26.7394 12.1009V16.7295C26.7394 17.5009 27.2537 18.0152 28.0251 18.0152C28.7966 18.0152 29.3109 17.5009 29.3109 16.7295V9.27235C29.3109 8.50092 28.7966 7.72948 28.0251 7.72948Z" fill="#B2D9F6"/>
<path d="M7.45361 0.0151978C6.93933 0.0151978 6.6822 0.272333 6.42506 0.529476L1.2822 5.67233C0.767913 6.18662 0.767913 6.95804 1.2822 7.47232C1.79648 7.98661 2.56787 7.98661 3.08215 7.47232L5.91074 4.64378V24.1866C4.36788 24.958 3.33931 26.7581 3.33931 28.5581C3.33931 31.3866 5.6536 33.7009 8.48217 33.7009C10.2822 33.7009 12.0822 32.6724 12.8536 31.1295H32.3965L29.5679 33.958C29.0536 34.4723 29.0536 35.2438 29.5679 35.758C30.0822 36.2723 30.8536 36.2723 31.3679 35.758L36.5107 30.6152C37.025 30.1009 37.2822 29.3295 36.7679 28.8152L36.5107 28.5581L31.3679 23.4152C31.1107 23.1581 30.8536 22.9009 30.3393 22.9009C29.5679 22.9009 29.0536 23.4152 29.0536 24.1866C29.0536 24.4438 29.3108 24.9581 29.5679 25.2152L32.3965 28.0438H13.625C13.625 25.2152 11.3107 22.9009 8.48217 22.9009V4.12948L11.3108 6.95805C11.825 7.47233 12.5965 7.47233 13.1108 6.95805C13.6251 6.44376 13.6251 5.67234 13.1108 5.15805L7.96793 0.0151978C8.22507 0.272341 7.71075 0.0151978 7.45361 0.0151978ZM8.73933 25.7295C10.2822 25.7295 11.3108 26.7581 11.3108 28.3009C11.3108 29.8438 10.2822 30.8723 8.73933 30.8723C7.19647 30.8723 6.1679 29.8438 6.1679 28.3009C6.1679 26.7581 7.19647 25.7295 8.73933 25.7295Z" fill="#B2D9F6"/>
</svg>
