<svg width="34" height="36" viewBox="0 0 34 36" fill="none" xmlns="http://www.w3.org/2000/svg">
<g opacity="0.99">
<path opacity="0.99" fill-rule="evenodd" clip-rule="evenodd" d="M16.2 -0.000183105C15.9428 -0.000183105 15.9428 -0.000183105 15.6857 -0.000183105L0.771397 6.94271C0.257111 7.19985 0 7.71413 0 8.22842V26.9998C0 27.5141 0.257111 28.0285 0.771397 28.0285L16.2 35.7427C16.4571 35.9999 16.9715 35.9999 17.2286 35.7427L32.6572 28.0285C33.1715 27.7713 33.4286 27.257 33.4286 26.9998V9.2569C33.4286 8.99975 33.4286 8.99988 33.4286 8.74274V8.22842C33.4286 7.71413 33.1715 7.19985 32.6572 6.94271L18 -0.000183105C17.7429 -0.000183105 17.7428 -0.000183105 17.4857 -0.000183105H16.2ZM16.4572 2.57125H17.2286L30.0857 8.74274L16.9714 15.1713L3.85714 8.74274L16.4572 2.57125ZM2.57143 11.0569L15.4286 17.2284V32.657L2.57143 26.2284V11.0569ZM30.8571 11.0569V26.2284L18 32.657V17.2284L30.8571 11.0569Z" fill="#7BCFB3"/>
</g>
</svg>
