<?xml version="1.0" standalone="no"?>
<!DOCTYPE svg PUBLIC "-//W3C//DTD SVG 20010904//EN"
 "http://www.w3.org/TR/2001/REC-SVG-20010904/DTD/svg10.dtd">
<svg version="1.0" xmlns="http://www.w3.org/2000/svg"
 width="512.000000pt" height="512.000000pt" viewBox="0 0 512.000000 512.000000"
 preserveAspectRatio="xMidYMid meet">
<metadata>
Created by potrace 1.11, written by Peter Selinger 2001-2013
</metadata>
<g transform="translate(0.000000,512.000000) scale(0.100000,-0.100000)"
fill="#000000" stroke="none">
<path d="M2365 4600 c-27 -4 -69 -10 -92 -13 -224 -32 -443 -131 -775 -350
-257 -170 -367 -228 -531 -281 -168 -55 -354 -72 -552 -52 -140 15 -130 17
-129 -34 3 -184 92 -336 241 -410 l48 -24 -33 -13 c-103 -42 -299 -57 -399
-30 -62 17 -63 15 -37 -74 71 -241 344 -457 688 -544 128 -32 199 -40 376 -40
182 0 225 4 409 40 13 2 48 12 78 20 31 9 57 14 59 12 2 -2 -11 -24 -30 -48
-60 -79 -205 -336 -216 -384 -1 -5 -7 -21 -12 -34 -12 -33 18 -63 109 -108 63
-31 83 -36 160 -39 48 -2 94 0 102 5 7 5 17 28 22 52 16 76 19 87 45 172 74
235 221 441 403 561 68 46 212 116 237 116 10 0 16 -37 30 -174 1 -16 7 -67
13 -115 6 -47 13 -106 16 -131 9 -77 16 -132 26 -209 10 -83 17 -66 -91 -231
-30 -47 -59 -93 -65 -102 -5 -10 -39 -64 -75 -120 -36 -57 -69 -111 -75 -120
-5 -10 -50 -86 -99 -170 -49 -84 -100 -172 -113 -195 l-24 -42 38 -9 c57 -15
133 -30 183 -38 25 -3 54 -8 65 -10 17 -3 67 -8 195 -19 19 -2 81 -4 137 -4
l102 -1 16 -57 c38 -138 48 -174 82 -273 40 -116 107 -264 147 -323 14 -21 26
-40 26 -43 0 -5 59 -72 95 -107 59 -58 166 -100 242 -95 58 4 57 -6 23 168
-19 93 -33 176 -45 255 -3 22 -10 67 -15 100 -16 105 -19 129 -25 185 -3 30
-8 62 -10 70 -2 8 -7 47 -10 85 -13 131 -23 114 95 157 295 107 554 277 798
526 94 97 103 104 116 87 11 -16 8 -30 -25 -106 -115 -265 -133 -465 -54 -619
38 -75 112 -140 238 -208 l57 -31 -1 62 c-3 158 54 348 198 657 142 304 224
512 239 608 14 86 -74 138 -271 159 -27 3 -51 6 -53 8 -1 1 9 26 22 56 14 29
24 54 23 55 -1 1 -40 5 -87 9 -47 3 -105 8 -130 10 -56 4 -205 15 -285 21 -33
2 -91 6 -130 9 -38 3 -99 8 -135 10 -36 3 -92 7 -125 10 -33 2 -98 7 -145 10
-85 6 -85 6 -123 48 -78 87 -211 316 -194 334 17 16 340 11 457 -7 187 -29
393 -87 548 -156 30 -13 62 -24 72 -24 33 0 83 76 117 176 39 114 40 108 -25
137 -123 55 -266 101 -377 121 -243 45 -312 51 -576 51 l-216 0 24 39 c72 114
68 258 -12 421 -34 71 -87 133 -137 163 -16 9 -28 25 -29 37 -3 86 -51 185
-119 249 -54 51 -162 106 -245 125 -27 6 -61 14 -75 17 -38 9 -338 12 -395 4z"/>
</g>
</svg>
